# xmcd
#
# Track frame offsets: 
#        150
#        9842
#        26638
#        41371
#        55710
#        70858
#        84705
#        96340
#        106523
#        119751
#        131780
#
# Disc length: 1912 seconds
#
# Revision: 2
# Processed by: cddbd v1.5.2PL0 Copyright (c) Steve Scherf et al.
# Submitted via: ExactAudioCopyFreeDBPlugin 1.0
#
DISCID=8907760b
DTITLE=Billie Jo Spears - I'm Not Easy
DYEAR=1977
DGENRE=Country
TTITLE0=Never Did Like Whiskey
TTITLE1=Is I Love You That Easy To Say
TTITLE2=Too Far Gone
TTITLE3=Heartbreak Hotel
TTITLE4=Here Comes Those Lies Again
TTITLE5=I'm Not That Easy
TTITLE6=Seeing Is Believing
TTITLE7=Here Comes My Baby Back Again
TTITLE8=Every Word I Write
TTITLE9=That's What Friends Are For
TTITLE10=No Other Man
EXTD=
EXTT0=
EXTT1=
EXTT2=
EXTT3=
EXTT4=
EXTT5=
EXTT6=
EXTT7=
EXTT8=
EXTT9=
EXTT10=
PLAYORDER=
